<svg width="130" height="120" viewBox="0 0 130 120" fill="none" xmlns="http://www.w3.org/2000/svg">
<g style="mix-blend-mode:darken">
<rect x="17.5" y="1.5" width="111" height="99" stroke="#171B1C" stroke-width="3"/>
</g>
<ellipse cx="65" cy="62.5" rx="65" ry="34.5" fill="#2689C0"/>
<path d="M85 83L107 120V83H85Z" fill="#2689C0"/>
<path d="M36.665 9.20312L40.8486 19.6445L45.0322 9.20312H47.2207V22H45.5332V17.0166L45.6914 11.6377L41.4902 22H40.1982L36.0059 11.6641L36.1729 17.0166V22H34.4854V9.20312H36.665ZM51.7119 22H50.0859V12.4902H51.7119V22ZM49.9541 9.96777C49.9541 9.7041 50.0332 9.48145 50.1914 9.2998C50.3555 9.11816 50.5957 9.02734 50.9121 9.02734C51.2285 9.02734 51.4688 9.11816 51.6328 9.2998C51.7969 9.48145 51.8789 9.7041 51.8789 9.96777C51.8789 10.2314 51.7969 10.4512 51.6328 10.627C51.4688 10.8027 51.2285 10.8906 50.9121 10.8906C50.5957 10.8906 50.3555 10.8027 50.1914 10.627C50.0332 10.4512 49.9541 10.2314 49.9541 9.96777ZM58.1367 20.8486C58.7168 20.8486 59.2236 20.6729 59.6572 20.3213C60.0908 19.9697 60.3311 19.5303 60.3779 19.0029H61.916C61.8867 19.5479 61.6992 20.0664 61.3535 20.5586C61.0078 21.0508 60.5449 21.4434 59.9648 21.7363C59.3906 22.0293 58.7812 22.1758 58.1367 22.1758C56.8418 22.1758 55.8105 21.7451 55.043 20.8838C54.2812 20.0166 53.9004 18.833 53.9004 17.333V17.0605C53.9004 16.1348 54.0703 15.3115 54.4102 14.5908C54.75 13.8701 55.2363 13.3105 55.8691 12.9121C56.5078 12.5137 57.2607 12.3145 58.1279 12.3145C59.1943 12.3145 60.0791 12.6338 60.7822 13.2725C61.4912 13.9111 61.8691 14.7402 61.916 15.7598H60.3779C60.3311 15.1445 60.0967 14.6406 59.6748 14.248C59.2588 13.8496 58.7432 13.6504 58.1279 13.6504C57.3018 13.6504 56.6602 13.9492 56.2031 14.5469C55.752 15.1387 55.5264 15.9971 55.5264 17.1221V17.4297C55.5264 18.5254 55.752 19.3691 56.2031 19.9609C56.6543 20.5527 57.2988 20.8486 58.1367 20.8486ZM68.3408 13.9492C68.0947 13.9082 67.8281 13.8877 67.541 13.8877C66.4746 13.8877 65.751 14.3418 65.3701 15.25V22H63.7441V12.4902H65.3262L65.3525 13.5889C65.8857 12.7393 66.6416 12.3145 67.6201 12.3145C67.9365 12.3145 68.1768 12.3555 68.3408 12.4375V13.9492ZM69.2373 17.1572C69.2373 16.2256 69.4189 15.3877 69.7822 14.6436C70.1514 13.8994 70.6611 13.3252 71.3115 12.9209C71.9678 12.5166 72.7148 12.3145 73.5527 12.3145C74.8477 12.3145 75.8936 12.7627 76.6904 13.6592C77.4932 14.5557 77.8945 15.748 77.8945 17.2363V17.3506C77.8945 18.2764 77.7158 19.1084 77.3584 19.8467C77.0068 20.5791 76.5 21.1504 75.8379 21.5605C75.1816 21.9707 74.4258 22.1758 73.5703 22.1758C72.2812 22.1758 71.2354 21.7275 70.4326 20.8311C69.6357 19.9346 69.2373 18.748 69.2373 17.2715V17.1572ZM70.8721 17.3506C70.8721 18.4053 71.1152 19.252 71.6016 19.8906C72.0938 20.5293 72.75 20.8486 73.5703 20.8486C74.3965 20.8486 75.0527 20.5264 75.5391 19.8818C76.0254 19.2314 76.2686 18.3232 76.2686 17.1572C76.2686 16.1143 76.0195 15.2705 75.5215 14.626C75.0293 13.9756 74.373 13.6504 73.5527 13.6504C72.75 13.6504 72.1025 13.9697 71.6104 14.6084C71.1182 15.2471 70.8721 16.1611 70.8721 17.3506Z" fill="#100F0F"/>
<path d="M17.968 54.56C17.968 52.272 19.16 50.504 21.544 49.256C23.944 48.008 27.328 47.384 31.696 47.384C34.176 47.384 35.992 47.76 37.144 48.512C38.296 49.264 38.872 50.288 38.872 51.584C38.872 52.672 38.496 53.648 37.744 54.512C37.008 55.376 35.968 56.016 34.624 56.432C37.568 56.768 39.04 57.8 39.04 59.528C39.04 60.424 38.72 61.176 38.08 61.784C37.456 62.376 36.624 62.8 35.584 63.056C33.824 63.488 32.016 63.704 30.16 63.704V63.224C30.528 63.256 30.88 63.272 31.216 63.272C32.816 63.272 34.024 62.992 34.84 62.432C35.832 61.744 36.328 60.84 36.328 59.72C36.328 59.08 36.128 58.512 35.728 58.016C35.344 57.504 34.96 57.152 34.576 56.96L33.976 56.672C33.464 56.784 32.888 56.84 32.248 56.84V56.36C33.784 56.36 35.184 55.92 36.448 55.04C37.712 54.16 38.344 53.008 38.344 51.584C38.344 50.4 37.784 49.488 36.664 48.848C35.56 48.192 33.976 47.856 31.912 47.84C31.032 53.792 30.36 57.888 29.896 60.128C29.576 61.856 28.776 63.208 27.496 64.184C26.216 65.176 24.848 65.672 23.392 65.672V65.216C24.016 65.168 24.472 65.096 24.76 65C25.064 64.92 25.32 64.736 25.528 64.448C25.736 64.176 25.888 63.848 25.984 63.464C26.16 62.68 26.296 61.936 26.392 61.232L28.696 47.96C25.416 48.232 22.88 48.944 21.088 50.096C19.312 51.232 18.424 52.72 18.424 54.56C18.424 55.392 18.712 56.096 19.288 56.672C19.688 57.056 20.216 57.352 20.872 57.56C21.528 57.752 22.064 57.864 22.48 57.896C22.912 57.912 23.144 57.904 23.176 57.872V58.376C21.288 58.376 19.888 57.928 18.976 57.032C18.304 56.408 17.968 55.584 17.968 54.56ZM43.5873 63.728C43.0753 63.248 42.5873 62.88 42.1233 62.624C41.6593 62.384 41.0913 62.264 40.4193 62.264C39.7633 62.264 39.2432 62.384 38.8592 62.624C38.4592 62.88 38.2592 63.232 38.2592 63.68C38.2592 64.144 38.5232 64.512 39.0512 64.784C39.5632 65.072 40.1713 65.216 40.8753 65.216C41.5793 65.216 42.2033 65.152 42.7473 65.024C43.0673 64.736 43.3473 64.304 43.5873 63.728ZM47.6433 66.152C47.9153 66.248 48.2033 66.312 48.5073 66.344C48.8113 66.376 49.2113 66.392 49.7073 66.392C50.2193 66.392 50.7393 66.256 51.2673 65.984C51.7953 65.712 52.2113 65.392 52.5153 65.024C52.8353 64.672 53.1153 64.272 53.3553 63.824C53.6593 63.296 53.8833 62.768 54.0273 62.24L54.6033 62.432C54.1873 63.792 53.5233 64.872 52.6113 65.672C51.7153 66.472 50.6673 66.872 49.4673 66.872C48.5233 66.872 47.8673 66.8 47.4993 66.656C47.1473 66.528 46.8913 66.44 46.7313 66.392C46.5713 66.36 46.3553 66.24 46.0833 66.032C45.8273 65.84 45.6753 65.728 45.6273 65.696C45.4993 65.6 45.1713 65.288 44.6433 64.76C43.6193 65.368 42.5153 65.672 41.3313 65.672C40.1473 65.672 39.2432 65.48 38.6192 65.096C37.9952 64.728 37.6832 64.256 37.6832 63.68C37.6832 63.12 37.9152 62.664 38.3792 62.312C38.8272 61.976 39.5072 61.808 40.4193 61.808C41.6673 61.808 42.7873 62.272 43.7793 63.2C43.9713 62.608 44.1313 61.952 44.2593 61.232L45.8672 51.944C46.2513 49.544 47.0833 47.928 48.3633 47.096C49.4833 46.376 50.7553 46.016 52.1793 46.016C53.6033 46.016 54.7633 46.424 55.6593 47.24C56.5713 48.056 57.0273 49.344 57.0273 51.104H56.4513C56.4513 49.68 56.1073 48.6 55.4193 47.864C54.7473 47.112 53.8913 46.736 52.8513 46.736C50.9473 46.736 49.8193 47.92 49.4673 50.288C49.4673 50.544 49.2593 51.864 48.8433 54.248C48.4433 56.616 48.0833 58.576 47.7633 60.128C47.4273 62 46.5313 63.448 45.0753 64.472C45.9393 65.336 46.5793 65.832 46.9953 65.96C47.1553 66.008 47.3713 66.072 47.6433 66.152ZM59.9406 58.544C59.9406 60.432 60.3566 61.792 61.1886 62.624C62.0366 63.456 62.9966 63.872 64.0686 63.872C65.5246 63.872 66.9086 63.384 68.2206 62.408C69.5486 61.448 70.5886 60.24 71.3406 58.784C72.0926 57.312 72.4686 55.808 72.4686 54.272C72.4686 52.736 72.1246 51.536 71.4366 50.672C70.7486 49.792 69.7726 49.352 68.5086 49.352C66.9886 49.352 65.7966 49.88 64.9326 50.936C64.0686 51.992 63.6366 53.232 63.6366 54.656C63.6366 55.28 63.7326 55.824 63.9246 56.288C64.1166 56.752 64.3326 57.096 64.5726 57.32C64.8126 57.544 65.0846 57.728 65.3886 57.872C65.7886 58.064 66.1326 58.16 66.4206 58.16L66.3966 58.64C66.1246 58.64 65.7726 58.544 65.3406 58.352C64.9246 58.16 64.5726 57.936 64.2846 57.68C63.9966 57.424 63.7326 57.032 63.4926 56.504C63.2686 55.976 63.1566 55.36 63.1566 54.656C63.1566 53.104 63.6286 51.76 64.5726 50.624C65.5326 49.472 66.8446 48.896 68.5086 48.896C69.9006 48.896 70.9886 49.376 71.7726 50.336C72.5566 51.296 72.9486 52.632 72.9486 54.344C72.9486 55.544 72.7086 56.752 72.2286 57.968C71.7646 59.168 71.1246 60.248 70.3086 61.208C69.5086 62.168 68.5006 62.952 67.2846 63.56C66.0846 64.168 64.8046 64.472 63.4446 64.472C61.5086 64.472 59.9966 63.88 58.9086 62.696C57.8206 61.528 57.2766 59.904 57.2766 57.824C57.2766 54.96 58.1886 52.528 60.0126 50.528C61.8366 48.528 64.1086 47.472 66.8286 47.36L66.8526 47.84C65.8126 47.872 64.8766 48.136 64.0446 48.632C63.2286 49.112 62.5646 49.728 62.0526 50.48C61.5566 51.216 61.1406 52.08 60.8046 53.072C60.2286 54.816 59.9406 56.64 59.9406 58.544ZM78.1338 58.736C78.1338 61.136 78.9098 62.72 80.4618 63.488C80.8458 63.536 81.3498 63.56 81.9738 63.56C82.5978 63.56 83.2538 63.464 83.9418 63.272C84.6458 63.096 85.2138 62.864 85.6458 62.576C86.2538 62.192 86.7098 61.824 87.0138 61.472C87.1098 61.12 87.2378 60.56 87.3978 59.792C87.5738 59.008 87.7098 58.416 87.8058 58.016L88.3098 58.136C88.1818 58.632 88.0218 59.296 87.8298 60.128C87.6538 60.96 87.5178 61.56 87.4218 61.928C87.3418 62.28 87.2138 62.736 87.0378 63.296C86.8778 63.872 86.7178 64.288 86.5578 64.544C86.3978 64.816 86.1818 65.112 85.9098 65.432C85.4778 65.96 84.7898 66.36 83.8458 66.632L83.7498 66.128C84.5658 65.952 85.1978 65.552 85.6458 64.928C86.0938 64.32 86.4778 63.456 86.7978 62.336C85.5018 63.504 83.8138 64.088 81.7338 64.088C79.6698 64.088 78.0778 63.496 76.9578 62.312C75.8538 61.144 75.3018 59.488 75.3018 57.344C75.3018 54.448 76.2378 52.064 78.1098 50.192C79.9818 48.32 82.4378 47.384 85.4778 47.384C86.8858 47.384 87.9018 47.64 88.5258 48.152C89.1498 48.648 89.4618 49.432 89.4618 50.504C89.4618 51.224 89.1098 52.112 88.4058 53.168C87.7658 54.192 87.4458 54.992 87.4458 55.568H86.9178C86.9178 55.248 86.9818 54.904 87.1098 54.536C87.2378 54.168 87.3498 53.904 87.4458 53.744C87.5418 53.584 87.7178 53.296 87.9738 52.88C88.5978 51.936 88.9098 51.16 88.9098 50.552C88.9098 49.272 88.3818 48.464 87.3258 48.128C86.8298 47.968 86.3098 47.888 85.7657 47.888C85.2218 47.888 84.6458 47.92 84.0378 47.984C83.4778 48.16 82.9418 48.392 82.4298 48.68C81.9338 48.952 81.4138 49.376 80.8698 49.952C80.3258 50.512 79.8618 51.168 79.4778 51.92C79.0938 52.672 78.7738 53.64 78.5178 54.824C78.2618 55.992 78.1338 57.296 78.1338 58.736Z" fill="#1D1B1B"/>
</svg>
